<?xml version="1.0" encoding="UTF-8"?>
<svg xmlns="http://www.w3.org/2000/svg" version="1.1" xmlns:xlink="http://www.w3.org/1999/xlink" viewBox="0 0 100 100">
  <defs>
    <style>
      .cls-1 {
        fill: #5d2779;
      }

      .cls-2 {
        fill: #572c85;
      }

      .cls-3 {
        fill: #7a539d;
      }

      .cls-4 {
        fill: #674392;
      }

      .cls-5 {
        fill: #412770;
      }

      .cls-6 {
        fill: #e4b375;
      }

      .cls-7 {
        fill: #5a348a;
      }

      .cls-8 {
        fill: url(#Dégradé_sans_nom_197);
      }
    </style>
    <linearGradient id="Dégradé_sans_nom_197" data-name="Dégradé sans nom 197" x1="26.9" y1="73.1" x2="72.7" y2="27.3" gradientTransform="translate(50.1 -20.5) rotate(45)" gradientUnits="userSpaceOnUse">
      <stop offset="0" stop-color="#f08366"/>
      <stop offset="1" stop-color="#f8f9e3"/>
    </linearGradient>
  </defs>
  <!-- Generator: Adobe Illustrator 28.7.8, SVG Export Plug-In . SVG Version: 1.2.0 Build 200)  -->
  <g>
    <g id="Calque_1">
      <rect class="cls-1" x="15" y="15" width="70.1" height="70.1" rx="15.4" ry="15.4" transform="translate(-20.7 50) rotate(-45)"/>
      <rect class="cls-8" x="17.4" y="17.8" width="64.8" height="64.8" rx="12.3" ry="12.3" transform="translate(-20.9 49.9) rotate(-45)"/>
      <rect class="cls-6" x="22.3" y="22.7" width="55.1" height="55.1" rx="10.3" ry="10.3" transform="translate(-20.9 49.9) rotate(-45)"/>
      <path class="cls-7" d="M49.8,18.9v17.9l-13.4,13.4h-17.4c0-1.9.6-3.8,2-5.2l24.1-24.1c1.3-1.3,3-2,4.8-2Z"/>
      <path class="cls-3" d="M81.1,50.2h-17.8l-13.4-13.4v-17.9c1.9,0,3.8.6,5.2,2l24.1,24.1c1.4,1.4,2.1,3.3,2,5.2Z"/>
      <path class="cls-2" d="M81.1,50.2c0,1.7-.7,3.4-2,4.8l-24.1,24.1c-1.4,1.4-3.3,2.1-5.2,2v-17.4l13.4-13.4h17.8Z"/>
      <path class="cls-5" d="M49.8,63.7v17.4c-1.7,0-3.5-.7-4.8-2l-24.1-24.1c-1.3-1.3-2-3-2-4.8h17.4l13.4,13.4Z"/>
      <polygon class="cls-4" points="63.2 50.2 49.8 63.7 36.3 50.2 49.8 36.8 63.2 50.2"/>
    </g>
  </g>
</svg>